HIERARCHY
ROOT Pelvis
{
	OFFSET 0.000000 0.000000 0.000000
	CHANNELS 6 Xposition Yposition Zposition Xrotation Yrotation Zrotation
	JOINT LeftUpLeg_virtual
	{
		OFFSET 0.000000 0.000000 0.000000
		CHANNELS 3 Xrotation Yrotation Zrotation
		JOINT LeftUpLeg
		{
			OFFSET 18.735201 -5.666702 -4.541200
			CHANNELS 3 Xrotation Yrotation Zrotation
			JOINT LeftLeg
			{
				OFFSET -0.021200 -31.938179 0.493100
				CHANNELS 3 Xrotation Yrotation Zrotation
				JOINT LeftFoot
				{
					OFFSET 0.021200 -31.938179 -4.336299
					CHANNELS 3 Xrotation Yrotation Zrotation
					JOINT LeftToeBase
					{
						OFFSET 0.943001 -26.722000 15.023500
						CHANNELS 3 Xrotation Yrotation Zrotation
						End Site
						{
							OFFSET 0 0 0
						}
					}
				}
			}
		}
	}
	JOINT RightUpLeg_virtual
	{
		OFFSET 0.000000 0.000000 0.000000
		CHANNELS 3 Xrotation Yrotation Zrotation
		JOINT RightUpLeg
		{
			OFFSET -18.735201 -5.666702 -4.541200
			CHANNELS 3 Xrotation Yrotation Zrotation
			JOINT RightLeg
			{
				OFFSET 0.018946 -31.938133 0.493100
				CHANNELS 3 Xrotation Yrotation Zrotation
				JOINT RightFoot
				{
					OFFSET -0.018946 -31.938126 -4.336299
					CHANNELS 3 Xrotation Yrotation Zrotation
					JOINT RightToeBase
					{
						OFFSET -0.943001 -26.722004 15.023500
						CHANNELS 3 Xrotation Yrotation Zrotation
						End Site
						{
							OFFSET 0 0 0
						}
					}
				}
			}
		}
	}
	JOINT Hips_virtual
	{
		OFFSET 0.000000 0.000000 0.000000
		CHANNELS 3 Xrotation Yrotation Zrotation
		JOINT Hips
		{
			OFFSET -0.000000 -0.000000 -0.000000
			CHANNELS 3 Xrotation Yrotation Zrotation
			JOINT Spine
			{
				OFFSET 0.000000 10.199997 -0.299500
				CHANNELS 3 Xrotation Yrotation Zrotation
				JOINT Spine1
				{
					OFFSET 0.000000 11.900002 -1.516600
					CHANNELS 3 Xrotation Yrotation Zrotation
					JOINT Spine2
					{
						OFFSET 0.000000 13.600006 -2.842500
						CHANNELS 3 Xrotation Yrotation Zrotation
						JOINT Neck_virtual
						{
							OFFSET 0.000000 0.000000 0.000000
							CHANNELS 3 Xrotation Yrotation Zrotation
							JOINT Neck
							{
								OFFSET 0.000000 9.624100 -2.890100
								CHANNELS 3 Xrotation Yrotation Zrotation
								JOINT Head
								{
									OFFSET 0.000000 14.068802 -1.351900
									CHANNELS 3 Xrotation Yrotation Zrotation
									End Site
									{
										OFFSET 0 0 0
									}
								}
							}
						}
						JOINT LeftShoulder_virtual
						{
							OFFSET 0.000000 0.000000 0.000000
							CHANNELS 3 Xrotation Yrotation Zrotation
							JOINT LeftShoulder
							{
								OFFSET 15.263000 10.923401 -0.547700
								CHANNELS 3 Xrotation Yrotation Zrotation
								JOINT LeftArm
								{
									OFFSET 25.438599 -2.830597 -13.032500
									CHANNELS 3 Xrotation Yrotation Zrotation
									JOINT LeftForeArm
									{
										OFFSET 29.960503 0.000000 0.000000
										CHANNELS 3 Xrotation Yrotation Zrotation
										JOINT LeftHand
										{
											OFFSET 27.849251 0.000000 0.000000
											CHANNELS 3 Xrotation Yrotation Zrotation
											End Site
											{
												OFFSET 0 0 0
											}
										}
									}
								}
							}
						}
						JOINT RightShoulder_virtual
						{
							OFFSET 0.000000 0.000000 0.000000
							CHANNELS 3 Xrotation Yrotation Zrotation
							JOINT RightShoulder
							{
								OFFSET -15.263000 10.923401 -0.547700
								CHANNELS 3 Xrotation Yrotation Zrotation
								JOINT RightArm
								{
									OFFSET -25.438599 -2.830597 -13.032500
									CHANNELS 3 Xrotation Yrotation Zrotation
									JOINT RightForeArm
									{
										OFFSET -29.960503 0.000000 0.000000
										CHANNELS 3 Xrotation Yrotation Zrotation
										JOINT RightHand
										{
											OFFSET -27.849251 0.000000 0.000000
											CHANNELS 3 Xrotation Yrotation Zrotation
											End Site
											{
												OFFSET 0 0 0
											}
										}
									}
								}
							}
						}
					}
				}
			}
		}
	}
}
MOTION
Frames: 13
Frame Time: 0.03333333
-34.299553 91.759750 -29.102898 0.000000 0.000000 0.000000 4.590378 1.673151 -1.232062 -52.715260 -1.510491 8.808358 50.183507 7.991233 0.787647 18.015095 10.496921 -8.229172 0.000000 0.000000 0.000000 4.590378 1.673151 -1.232062 2.560462 -11.610055 -8.313739 23.135053 -9.230635 -0.450553 -13.338131 -5.911390 16.757029 0.000000 0.000000 0.000000 4.590378 1.673151 -1.232062 0.000000 0.000000 0.000000 1.905708 0.371962 -5.845482 2.892908 2.233309 -0.852137 0.000000 0.000000 0.000000 2.920208 2.206553 -0.824566 -0.033981 0.644637 0.708916 0.000000 0.000000 0.000000 2.920208 2.206553 -0.824566 1.380881 -3.785532 -10.633356 -12.976629 21.713952 -36.552054 0.000064 -68.123549 0.000068 0.000000 0.000000 0.000000 2.920208 2.206553 -0.824566 0.756991 -2.615171 10.735705 -16.932719 -17.380270 42.253012 0.000001 11.334223 -0.000019 0.000000 0.000000 0.000000 
-33.645912 92.469635 -29.409454 0.000000 0.000000 0.000000 4.766360 0.008012 -0.691539 -48.980332 -1.429073 10.577079 53.054345 8.545143 1.025002 18.133857 14.714232 -1.564537 0.000000 0.000000 0.000000 4.766360 0.008012 -0.691539 0.042695 -10.917946 -11.542447 23.345515 -6.448476 -0.399624 -10.718151 -3.973820 18.540552 0.000000 0.000000 0.000000 4.766360 0.008012 -0.691539 0.000000 0.000000 0.000000 1.605938 1.220109 -6.490352 2.374022 3.259592 -1.400061 0.000000 0.000000 0.000000 2.430396 3.238700 -1.364457 -0.082929 0.574228 0.890202 0.000000 0.000000 0.000000 2.430396 3.238700 -1.364457 1.467534 -4.240642 -11.592414 5.654184 26.367481 -43.866825 -0.000042 -67.796758 -0.000044 0.000000 0.000000 0.000000 2.430396 3.238700 -1.364457 0.734775 -2.719271 10.596595 -18.801305 -15.324284 39.607065 0.000003 12.657100 -0.000010 0.000000 0.000000 0.000000 
-32.824284 92.847885 -29.577148 0.000000 0.000000 0.000000 5.522605 -1.132003 -0.454349 -43.942360 -1.337016 13.221353 52.047114 8.941849 1.299128 16.800592 19.448854 2.452785 0.000000 0.000000 0.000000 5.522605 -1.132003 -0.454349 -2.179457 -10.169938 -14.212495 22.764382 -2.775223 -0.190560 -8.511894 -2.899052 20.341316 0.000000 0.000000 0.000000 5.522605 -1.132003 -0.454349 0.000000 0.000000 0.000000 1.200218 1.923284 -6.735080 1.667890 4.119296 -1.757983 0.000000 0.000000 0.000000 1.751485 4.109058 -1.720883 -0.125358 0.501702 0.976473 0.000000 0.000000 0.000000 1.751485 4.109058 -1.720883 1.475788 -4.286666 -11.679665 17.858447 29.300364 -52.334357 -0.000001 -63.835317 -0.000006 0.000000 0.000000 0.000000 1.751485 4.109058 -1.720883 0.694858 -2.907715 10.339738 -19.916143 -14.501851 37.786738 0.000001 13.690953 -0.000005 0.000000 0.000000 0.000000 
-31.770565 92.859047 -29.728340 0.000000 0.000000 0.000000 6.529380 -1.114092 -0.609646 -38.562193 -0.819094 16.187760 47.915652 9.337156 1.545822 14.070278 23.696027 5.860493 0.000000 0.000000 0.000000 6.529380 -1.114092 -0.609646 -3.196824 -9.522070 -15.769153 21.143306 0.222989 0.077085 -7.036454 -2.668786 21.893178 0.000000 0.000000 0.000000 6.529380 -1.114092 -0.609646 0.000000 0.000000 0.000000 0.780365 2.405255 -6.449954 0.935645 4.729537 -1.887954 0.000000 0.000000 0.000000 1.033655 4.731258 -1.854253 -0.171205 0.414565 1.000088 0.000000 0.000000 0.000000 1.033655 4.731258 -1.854253 1.413561 -3.961265 -10.979307 23.536383 32.038300 -58.288520 0.000006 -58.385550 0.000017 0.000000 0.000000 0.000000 1.033655 4.731258 -1.854253 0.656533 -3.133578 10.169166 -20.170498 -14.903042 36.224332 0.000004 14.706342 -0.000005 0.000000 0.000000 0.000000 
-30.263966 92.253937 -29.865036 0.000000 0.000000 0.000000 7.572842 0.500990 -1.149151 -34.353027 -0.048515 19.498279 41.520768 9.499461 1.628969 13.736193 25.328469 8.459028 0.000000 0.000000 0.000000 7.572842 0.500990 -1.149151 -2.687336 -9.102681 -16.366219 19.405259 0.770141 0.165303 -7.235442 -2.707890 23.285896 0.000000 0.000000 0.000000 7.572842 0.500990 -1.149151 0.000001 0.000000 0.000000 0.384406 2.562406 -5.639217 0.246711 4.906919 -1.825425 0.000000 0.000000 0.000000 0.336287 4.918690 -1.798403 -0.223939 0.314037 0.990088 0.000000 0.000000 0.000000 0.336287 4.918690 -1.798403 1.324389 -3.512357 -9.976232 25.521284 34.898401 -60.939829 -0.000003 -52.600414 -0.000011 0.000000 0.000000 0.000000 0.336287 4.918690 -1.798403 0.632753 -3.308891 10.128412 -19.911550 -15.913004 34.488955 0.000007 15.415459 0.000004 0.000000 0.000000 0.000000 
-28.236164 91.051804 -30.074837 0.000000 0.000000 0.000000 8.695060 3.740240 -1.695899 -32.419367 0.259240 23.434418 35.461724 8.961694 1.394250 17.894604 22.084600 6.682394 0.000000 0.000000 0.000000 8.695060 3.740240 -1.695899 -1.078215 -9.104042 -16.622829 18.343854 -1.190527 0.009339 -9.391665 -3.141483 24.394275 0.000000 0.000000 0.000000 8.695060 3.740240 -1.695899 0.000000 0.000000 0.000000 0.044985 2.398612 -4.852457 -0.355802 4.587630 -1.709303 0.000000 0.000000 0.000000 -0.283455 4.605728 -1.687240 -0.323826 0.208226 0.957196 0.000000 0.000000 0.000000 -0.283455 4.605728 -1.687240 1.256911 -3.186818 -9.214851 24.813198 37.801381 -60.386160 -0.000000 -46.103470 0.000002 0.000000 0.000000 0.000000 -0.283455 4.605728 -1.687240 0.603884 -3.462552 9.954564 -19.777421 -17.268907 33.057221 -0.000003 15.522244 0.000017 0.000000 0.000000 0.000000 
-25.667614 89.433128 -30.437057 0.000000 0.000000 0.000000 10.026721 8.187402 -2.003094 -32.432515 -0.118411 27.503744 31.683007 7.835164 0.909582 23.290831 13.867549 -0.411018 0.000000 0.000000 0.000000 10.026721 8.187402 -2.003094 0.869621 -9.536606 -17.062497 18.276925 -4.715123 -0.271650 -13.099955 -3.953947 25.252099 0.000000 0.000000 0.000000 10.026721 8.187402 -2.003094 0.000000 0.000000 0.000000 -0.232362 2.060901 -4.493941 -0.898079 3.974729 -1.651769 0.000000 0.000000 0.000000 -0.835446 3.998523 -1.631644 -0.518509 0.089853 0.895703 0.000000 0.000000 0.000000 -0.835446 3.998523 -1.631644 1.216188 -2.990604 -8.767605 21.771412 40.002372 -57.452396 0.000007 -38.901694 -0.000009 0.000000 0.000000 0.000000 -0.835446 3.998523 -1.631644 0.558416 -3.614682 9.481945 -19.764839 -19.003488 32.254479 0.000005 16.979592 -0.000012 0.000000 0.000000 0.000000 
-22.523373 87.602417 -31.047394 0.000000 0.000000 0.000000 11.418499 13.108845 -2.010246 -33.220018 -1.330524 31.080533 33.227798 6.798971 0.488807 21.319232 4.914454 -13.184584 0.000000 0.000000 0.000000 11.418499 13.108845 -2.010246 3.109529 -10.225610 -18.102276 18.068770 -7.441360 -0.393421 -16.859093 -5.771406 25.902509 0.000000 0.000000 0.000000 11.418499 13.108845 -2.010246 0.000000 0.000000 0.000000 -0.432490 1.736118 -4.564405 -1.289353 3.390166 -1.692116 0.000000 0.000000 0.000000 -1.227488 3.421852 -1.672399 -0.785010 -0.042083 0.806991 0.000000 0.000000 0.000000 -1.227488 3.421852 -1.672399 1.184284 -2.828951 -8.442737 17.773983 40.726448 -53.838645 0.000011 -32.745819 0.000001 0.000000 0.000000 0.000000 -1.227488 3.421852 -1.672399 0.511233 -3.756722 8.939212 -19.439521 -20.968075 31.913635 -0.000003 20.530784 0.000005 0.000000 0.000000 0.000000 
-18.905731 85.830429 -31.930313 0.000000 0.000000 0.000000 12.379342 17.694549 -1.665864 -30.369425 -0.734745 32.667996 29.779300 4.447038 0.244903 18.833280 0.217933 -28.031288 0.000000 0.000000 0.000000 12.379342 17.694549 -1.665864 4.951937 -10.730091 -20.208348 18.615049 -8.496881 -0.364383 -19.688696 -8.292516 26.699372 0.000000 0.000000 0.000000 12.379342 17.694549 -1.665864 0.000001 0.000002 -0.000000 -0.527588 1.511602 -4.708101 -1.500216 2.983728 -1.791531 0.000000 0.000000 0.000000 -1.439805 3.022472 -1.772860 -1.036163 -0.166467 0.711431 0.000000 0.000000 0.000000 -1.439805 3.022472 -1.772860 1.167943 -2.733708 -8.308187 14.445944 40.305510 -51.202612 0.000001 -28.954517 -0.000003 0.000000 0.000000 0.000000 -1.439805 3.022472 -1.772860 0.479076 -3.910774 8.668154 -19.097947 -23.017292 32.000273 -0.000008 25.872574 0.000014 0.000000 0.000000 0.000000 
-15.168026 85.072258 -32.595856 0.000000 0.000000 0.000000 12.500628 21.204030 -0.925799 -27.022890 0.463992 30.796353 29.768734 5.029203 0.197345 9.448407 0.397694 -35.715431 0.000000 0.000000 0.000000 12.500628 21.204030 -0.925799 5.350982 -11.057889 -22.697909 20.541579 -8.328490 -0.420181 -19.386683 -10.513448 26.079059 0.000000 0.000000 0.000000 12.500628 21.204030 -0.925799 0.000000 -0.000001 0.000000 -0.541720 1.326951 -4.489075 -1.491711 2.649765 -1.773510 0.000000 0.000000 0.000000 -1.440394 2.687087 -1.758995 -1.210314 -0.253385 0.638207 0.000000 0.000000 0.000000 -1.440394 2.687087 -1.758995 1.207662 -2.909291 -8.771781 12.016824 39.548571 -50.097505 0.000006 -26.679422 0.000006 0.000000 0.000000 0.000000 -1.440394 2.687087 -1.758995 0.476877 -3.978213 8.761639 -19.684180 -25.178604 32.667442 0.000006 32.535032 -0.000015 0.000000 0.000000 0.000000 
-11.296553 85.910454 -32.549629 0.000000 0.000000 0.000000 11.855460 22.996984 -0.010919 -22.720682 2.515177 26.337218 29.184343 6.006832 0.262968 0.598908 3.264372 -34.774426 0.000000 0.000000 0.000000 11.855460 22.996984 -0.010919 1.454976 -10.078254 -24.883079 26.548010 -8.239765 -0.457036 -14.603757 -10.830201 21.322836 0.000000 0.000000 0.000000 11.855460 22.996984 -0.010919 -0.000001 0.000000 0.000000 -0.562193 1.125678 -3.584041 -1.405217 2.368122 -1.514596 0.000000 0.000000 0.000000 -1.369694 2.394873 -1.506918 -1.299934 -0.290107 0.615050 0.000000 0.000000 0.000000 -1.369694 2.394873 -1.506918 1.309491 -3.416640 -9.863740 10.156550 38.389522 -50.277040 -0.000007 -24.492918 -0.000004 0.000000 0.000000 0.000000 -1.369694 2.394873 -1.506918 0.517875 -3.811605 9.165741 -21.082012 -26.885568 34.360257 0.000017 39.838653 -0.000021 0.000000 0.000000 0.000000 
-7.510306 87.228867 -32.233696 0.000000 0.000000 0.000000 10.954570 22.828642 0.955448 -17.621629 4.876389 22.148709 26.302864 6.815337 0.370868 -3.487089 5.179325 -32.963108 0.000000 0.000000 0.000000 10.954570 22.828642 0.955448 -7.488972 -6.558272 -25.966509 37.792229 -9.153399 -0.739844 -9.504972 -10.958514 11.997644 0.000000 0.000000 0.000000 10.954570 22.828642 0.955448 0.000001 0.000000 0.000000 -0.581839 1.002123 -2.554185 -1.314499 2.169608 -1.222976 0.000000 0.000000 0.000000 -1.290653 2.187760 -1.219514 -1.320011 -0.286921 0.662890 0.000000 0.000000 0.000000 -1.290653 2.187760 -1.219514 1.409273 -3.936653 -10.937427 8.859782 36.077793 -51.045002 0.000002 -22.346941 0.000000 0.000000 0.000000 0.000000 -1.290653 2.187760 -1.219514 0.574941 -3.553068 9.643226 -22.247946 -26.565234 37.123827 0.000002 46.594553 0.000001 0.000000 0.000000 0.000000 
-4.640770 88.243446 -31.932053 0.000000 0.000000 0.000000 10.155593 21.084813 1.728412 -13.720345 6.870555 19.267274 24.218690 7.145419 0.436375 -4.294864 6.562519 -31.881742 0.000000 0.000000 0.000000 10.155593 21.084813 1.728412 -18.175067 -2.204267 -24.810806 46.817050 -10.692786 -1.064403 -2.577729 -9.945956 1.768642 0.000000 0.000000 0.000000 10.155593 21.084813 1.728412 0.000000 0.000002 0.000000 -0.556608 0.960201 -1.734578 -1.164322 1.988413 -0.999155 0.000000 0.000000 0.000000 -1.148612 2.000561 -0.997658 -1.316317 -0.250735 0.812292 0.000000 0.000000 0.000000 -1.148612 2.000561 -0.997658 1.458294 -4.203961 -11.458424 7.196046 32.381831 -51.753392 -0.000002 -20.861028 -0.000001 0.000000 0.000000 0.000000 -1.148612 2.000561 -0.997658 0.613646 -3.385036 9.962444 -21.028879 -22.850686 40.518786 -0.000017 51.595522 0.000020 0.000000 0.000000 0.000000 
